HIERARCHY
ROOT Pelvis
{
	OFFSET 0.000000 0.000000 0.000000
	CHANNELS 6 Xposition Yposition Zposition Xrotation Yrotation Zrotation
	JOINT LeftUpLeg_virtual
	{
		OFFSET 0.000000 0.000000 0.000000
		CHANNELS 3 Xrotation Yrotation Zrotation
		JOINT LeftUpLeg
		{
			OFFSET 8.479700 -4.795502 -0.379100
			CHANNELS 3 Xrotation Yrotation Zrotation
			JOINT LeftLeg
			{
				OFFSET 0.024144 -32.555107 0.112900
				CHANNELS 3 Xrotation Yrotation Zrotation
				JOINT LeftFoot
				{
					OFFSET -0.024144 -32.638630 -3.012600
					CHANNELS 3 Xrotation Yrotation Zrotation
					JOINT LeftToeBase
					{
						OFFSET 0.970200 -13.225400 11.864200
						CHANNELS 3 Xrotation Yrotation Zrotation
						End Site
						{
							OFFSET 0 0 0
						}
					}
				}
			}
		}
	}
	JOINT RightUpLeg_virtual
	{
		OFFSET 0.000000 0.000000 0.000000
		CHANNELS 3 Xrotation Yrotation Zrotation
		JOINT RightUpLeg
		{
			OFFSET -8.479700 -4.795502 -0.379100
			CHANNELS 3 Xrotation Yrotation Zrotation
			JOINT RightLeg
			{
				OFFSET -0.023144 -32.555092 0.112900
				CHANNELS 3 Xrotation Yrotation Zrotation
				JOINT RightFoot
				{
					OFFSET 0.023144 -32.638641 -3.012700
					CHANNELS 3 Xrotation Yrotation Zrotation
					JOINT RightToeBase
					{
						OFFSET -0.970200 -13.225400 11.864200
						CHANNELS 3 Xrotation Yrotation Zrotation
						End Site
						{
							OFFSET 0 0 0
						}
					}
				}
			}
		}
	}
	JOINT Hips_virtual
	{
		OFFSET 0.000000 0.000000 0.000000
		CHANNELS 3 Xrotation Yrotation Zrotation
		JOINT Hips
		{
			OFFSET -0.000000 -0.000000 -0.000000
			CHANNELS 3 Xrotation Yrotation Zrotation
			JOINT Spine
			{
				OFFSET 0.000000 7.722000 1.166200
				CHANNELS 3 Xrotation Yrotation Zrotation
				JOINT Spine1
				{
					OFFSET 0.000000 12.024101 0.248800
					CHANNELS 3 Xrotation Yrotation Zrotation
					JOINT Spine2
					{
						OFFSET 0.000000 11.502998 -0.491200
						CHANNELS 3 Xrotation Yrotation Zrotation
						JOINT Neck_virtual
						{
							OFFSET 0.000000 0.000000 0.000000
							CHANNELS 3 Xrotation Yrotation Zrotation
							JOINT Neck
							{
								OFFSET 0.000000 18.430702 -3.123100
								CHANNELS 3 Xrotation Yrotation Zrotation
								JOINT Head
								{
									OFFSET 0.000000 9.051102 1.034000
									CHANNELS 3 Xrotation Yrotation Zrotation
									End Site
									{
										OFFSET 0 0 0
									}
								}
							}
						}
						JOINT LeftShoulder_virtual
						{
							OFFSET 0.000000 0.000000 0.000000
							CHANNELS 3 Xrotation Yrotation Zrotation
							JOINT LeftShoulder
							{
								OFFSET 6.197800 13.665199 -4.064700
								CHANNELS 3 Xrotation Yrotation Zrotation
								JOINT LeftArm
								{
									OFFSET 7.778100 -0.187103 -1.709300
									CHANNELS 3 Xrotation Yrotation Zrotation
									JOINT LeftForeArm
									{
										OFFSET 22.049376 0.000000 0.000000
										CHANNELS 3 Xrotation Yrotation Zrotation
										JOINT LeftHand
										{
											OFFSET 23.009392 0.000000 0.000000
											CHANNELS 3 Xrotation Yrotation Zrotation
											End Site
											{
												OFFSET 0 0 0
											}
										}
									}
								}
							}
						}
						JOINT RightShoulder_virtual
						{
							OFFSET 0.000000 0.000000 0.000000
							CHANNELS 3 Xrotation Yrotation Zrotation
							JOINT RightShoulder
							{
								OFFSET -6.197800 13.665199 -4.064700
								CHANNELS 3 Xrotation Yrotation Zrotation
								JOINT RightArm
								{
									OFFSET -7.778100 -0.187103 -1.709300
									CHANNELS 3 Xrotation Yrotation Zrotation
									JOINT RightForeArm
									{
										OFFSET -22.049376 0.000000 0.000000
										CHANNELS 3 Xrotation Yrotation Zrotation
										JOINT RightHand
										{
											OFFSET -23.009392 0.000000 0.000000
											CHANNELS 3 Xrotation Yrotation Zrotation
											End Site
											{
												OFFSET 0 0 0
											}
										}
									}
								}
							}
						}
					}
				}
			}
		}
	}
}
MOTION
Frames: 4
Frame Time: 0.03333333
-0.334643 111.390350 -0.412851 0.000000 0.000000 0.000000 5.762217 -19.786305 11.712001 -92.563475 -5.133411 24.236636 56.402476 -5.175227 -14.159532 13.540481 -7.950203 11.656392 0.000000 0.000000 0.000000 5.762217 -19.786305 11.712001 -98.440218 4.833053 9.625231 125.377370 -7.604527 -2.383272 29.436497 1.639463 -3.828279 0.000000 0.000000 0.000000 5.762217 -19.786305 11.712001 0.000000 0.000000 0.000000 34.329152 -6.971556 -11.404503 -1.919979 -0.704208 -1.068979 0.000000 0.000000 0.000000 -1.861948 -0.963994 -0.958728 -27.161323 7.980846 9.093857 0.000000 0.000000 0.000000 -1.861948 -0.963994 -0.958728 14.342933 -28.036216 31.312982 -54.053294 10.158292 9.211012 -39.508679 -62.618348 -18.464453 0.000000 0.000000 0.000000 -1.861948 -0.963994 -0.958728 3.778675 7.559639 -24.581255 -73.831422 -14.404399 -24.052229 -51.826157 60.836686 47.494878 0.000000 0.000000 0.000000 
-0.360549 111.358246 3.523113 0.000000 0.000000 0.000000 5.410326 -19.784951 11.440499 -90.246968 -4.235171 22.887252 53.928298 -5.516772 -13.834800 14.581452 -7.132528 11.372058 0.000000 0.000000 0.000000 5.410326 -19.784951 11.440499 -100.122630 4.462567 9.957660 122.773716 -8.946902 -2.466084 30.801083 1.645855 -0.122100 0.000000 0.000000 0.000000 5.410326 -19.784951 11.440499 -0.000000 0.000002 0.000001 34.069148 -7.180825 -11.258004 -1.705506 -0.826086 -1.172770 0.000000 0.000000 0.000000 -1.718719 -1.101915 -0.901944 -26.754452 7.923677 9.300321 0.000000 0.000000 0.000000 -1.718719 -1.101915 -0.901944 13.329966 -28.376431 28.717353 -55.448572 15.227883 10.991226 -68.123760 -71.308179 -47.693036 0.000000 0.000000 0.000000 -1.718719 -1.101915 -0.901944 3.694515 8.731530 -22.067281 -77.217665 -16.836295 -27.351911 -55.432319 62.389796 51.618021 0.000000 0.000000 0.000000 
-0.466496 111.267105 7.394280 0.000000 0.000000 0.000000 5.068910 -20.019576 11.253420 -87.329562 -4.287645 21.183403 51.468078 -3.697930 -13.212866 15.782371 -7.883695 10.848629 0.000000 0.000000 0.000000 5.068910 -20.019576 11.253420 -99.352785 4.595823 9.335879 118.615510 -9.646530 -2.442893 30.976175 1.304703 3.417398 0.000000 0.000000 0.000000 5.068910 -20.019576 11.253420 0.000000 0.000000 0.000001 33.226760 -7.233490 -10.997101 -1.359168 -0.996959 -1.581734 0.000000 0.000000 0.000000 -1.479998 -1.199184 -0.910619 -25.746980 7.766829 9.873791 0.000000 0.000000 0.000000 -1.479998 -1.199184 -0.910619 11.862431 -27.977705 26.191825 -55.866013 16.655999 11.417588 -90.273756 -72.340016 -70.563559 0.000000 0.000000 0.000000 -1.479998 -1.199184 -0.910619 3.769988 11.074704 -19.093290 -80.238692 -18.402070 -30.381569 -59.729314 63.810079 56.438847 0.000000 0.000000 0.000000 
-0.634290 111.064178 11.175241 0.000000 0.000000 0.000000 4.721717 -20.467905 11.140960 -83.943933 -5.157165 19.233777 48.561576 -1.255691 -12.420923 17.261811 -8.720212 9.986087 0.000000 0.000000 0.000000 4.721717 -20.467905 11.140960 -96.777859 4.960191 8.228306 113.359946 -8.821080 -2.289127 30.316099 -0.372289 7.558438 0.000000 0.000000 0.000000 4.721717 -20.467905 11.140960 0.000000 -0.000001 0.000000 31.891833 -7.100073 -10.630783 -0.846946 -1.225807 -2.282627 0.000000 0.000000 0.000000 -0.947540 -1.280961 -1.065721 -24.462874 7.530891 10.745751 0.000000 0.000000 0.000000 -0.947540 -1.280961 -1.065721 9.913588 -27.228092 23.284593 -55.741037 16.364887 11.372911 -102.459067 -71.986007 -83.327925 0.000000 0.000000 0.000000 -0.947540 -1.280961 -1.065721 3.679097 13.977357 -16.002228 -82.618269 -19.392434 -32.930538 -63.588802 64.803810 60.717267 0.000000 0.000000 0.000000 
